<svg id="Layer_1" data-name="Layer 1" xmlns="http://www.w3.org/2000/svg" viewBox="0 0 828 475"><defs><style>.cls-1{stroke:#000;stroke-width:0.71px;}.cls-1,.cls-2{stroke-miterlimit:10;}.cls-2{fill:none;stroke:#a69766;}</style></defs><title>LOGO_KWA_HOR_RGB</title><path class="cls-1" d="M394.38,227.36h-7.77c-1.5-2.32-3.17-4.62-5-6.91s-3.75-4.5-5.76-6.65h-.5v9.65a2.63,2.63,0,0,0,.24,1.15,1.75,1.75,0,0,0,.89.82,6.41,6.41,0,0,0,1.16.34,7.49,7.49,0,0,0,1.42.21v1.39H367.56V226l1.31-.12a4.34,4.34,0,0,0,1.21-.23,1.66,1.66,0,0,0,.85-.75,2.5,2.5,0,0,0,.27-1.2v-20a2.76,2.76,0,0,0-.23-1.16,1.77,1.77,0,0,0-.89-.8,7.19,7.19,0,0,0-1.25-.45,7,7,0,0,0-1.27-.23v-1.39h11.51V201a8.33,8.33,0,0,0-1.37.18,8.67,8.67,0,0,0-1.21.29,1.44,1.44,0,0,0-.9.78,2.9,2.9,0,0,0-.23,1.19V213h.39q1.75-1.48,3.45-3.09c1.14-1.08,2.16-2.15,3.09-3.22a29.13,29.13,0,0,0,2.25-2.84,3.51,3.51,0,0,0,.72-1.88.54.54,0,0,0-.36-.48,3.68,3.68,0,0,0-.83-.31,8.53,8.53,0,0,0-1-.14l-.7-.05v-1.39h10.39V201l-.26,0-.44,0a3.31,3.31,0,0,0-.55.08l-.7.13a7.33,7.33,0,0,0-1.42.5,3.75,3.75,0,0,0-1.2.85L384,207.38q-2.19,2.44-4.33,4.45,3,3.36,4.91,5.78c1.3,1.62,2.68,3.34,4.14,5.18a9.91,9.91,0,0,0,1.67,1.69,10.08,10.08,0,0,0,1.44.94,4.65,4.65,0,0,0,1.27.39,7.71,7.71,0,0,0,1.26.16Z"/><path class="cls-1" d="M422.25,227.36h-7.46q-2.49-3.88-4.48-6.72T406,214.8h-2.84v8.79a3.21,3.21,0,0,0,.21,1.2,1.54,1.54,0,0,0,.92.79,5.8,5.8,0,0,0,1.23.25A14,14,0,0,0,407,226v1.39H395.26V226c.31,0,.76-.07,1.36-.14a4.75,4.75,0,0,0,1.24-.25,1.73,1.73,0,0,0,.85-.74,2.7,2.7,0,0,0,.26-1.25v-20a3.45,3.45,0,0,0-.2-1.21,1.42,1.42,0,0,0-.91-.8,8.47,8.47,0,0,0-1.27-.33c-.52-.09-1-.15-1.33-.18v-1.39h12.79a14.51,14.51,0,0,1,3.3.36,8.91,8.91,0,0,1,2.79,1.17,5.83,5.83,0,0,1,1.94,2,6,6,0,0,1,.72,3,7.58,7.58,0,0,1-.49,2.84,5.87,5.87,0,0,1-1.44,2.13,8.65,8.65,0,0,1-2.11,1.45,16.38,16.38,0,0,1-2.72,1.05q2.06,2.72,3.41,4.57l3.33,4.51a9.62,9.62,0,0,0,1.55,1.73,8.1,8.1,0,0,0,1.38.9,4.65,4.65,0,0,0,1.27.39,8,8,0,0,0,1.27.16ZM412,206.7a5.07,5.07,0,0,0-5.53-5.46h-3.32v11.88h2.56A6.05,6.05,0,0,0,412,206.7Z"/><path class="cls-1" d="M449.16,227.36H437.64V226a11.33,11.33,0,0,0,2.53-.39c.67-.2,1-.44,1-.72a2.45,2.45,0,0,0,0-.43A1.84,1.84,0,0,0,441,224l-2.29-6.21H429c-.37.91-.66,1.7-.89,2.38s-.43,1.3-.62,1.88-.28,1-.35,1.36a5.54,5.54,0,0,0-.1.86c0,.52.41.93,1.23,1.21a9.75,9.75,0,0,0,2.78.51v1.39H420.61V226a7.89,7.89,0,0,0,1.27-.22,4.28,4.28,0,0,0,1.25-.5,4.87,4.87,0,0,0,1.21-1.11,6.78,6.78,0,0,0,.84-1.59q2.08-5.2,4.61-11.72t4.49-11.58h1.56l9.24,23.91a4.68,4.68,0,0,0,.67,1.23,4.52,4.52,0,0,0,1,.92,4.67,4.67,0,0,0,1.17.46,6,6,0,0,0,1.21.2ZM438,216l-4.19-10.76L429.68,216Z"/><path class="cls-1" d="M478.6,201a8.74,8.74,0,0,0-1.68.31,5.92,5.92,0,0,0-1.62.61,2.73,2.73,0,0,0-.95,1.87,21.32,21.32,0,0,0-.24,3.52v20.29h-1.7L455.61,205v14.29a17.29,17.29,0,0,0,.3,3.69,3.39,3.39,0,0,0,.93,1.84,4.57,4.57,0,0,0,1.86.8,10.59,10.59,0,0,0,1.85.39v1.39H449.18V226a9.88,9.88,0,0,0,1.78-.38,4.5,4.5,0,0,0,1.56-.62,2.82,2.82,0,0,0,.94-1.67,19.69,19.69,0,0,0,.25-3.83V205.81a5.4,5.4,0,0,0-.31-1.79,3.42,3.42,0,0,0-.84-1.39,5.8,5.8,0,0,0-1.9-1.1,6.78,6.78,0,0,0-2-.5v-1.39h7.92l15.58,21.13V207.59a16.85,16.85,0,0,0-.31-3.72,3,3,0,0,0-.9-1.73,6.57,6.57,0,0,0-1.79-.72,10.27,10.27,0,0,0-1.88-.39v-1.39H478.6Z"/><path class="cls-1" d="M502.64,218.71l-.92,8.65H479.46v-.69l17.44-25.48h-6.39q-1.11,0-1.86,0a10.92,10.92,0,0,0-1.38.16,5.77,5.77,0,0,0-2.9,2.13,13.58,13.58,0,0,0-2.43,4h-1.37l.84-7.83h20.76v.69l-17.44,25.48h6.58a27.86,27.86,0,0,0,3.54-.23,4.45,4.45,0,0,0,2.44-.8,15.12,15.12,0,0,0,2.36-3,19.57,19.57,0,0,0,1.62-3.1Z"/><path class="cls-1" d="M552.25,201a4.47,4.47,0,0,0-1.13.22,5.61,5.61,0,0,0-1.19.54,4.13,4.13,0,0,0-1.11,1,5.22,5.22,0,0,0-.73,1.55q-1.38,4.51-3.22,10.54c-1.23,4-2.55,8.3-4,12.84h-1.8l-7-21.35-7.28,21.35h-1.72q-1.93-6.84-4-14.19t-2.78-9.85a3.39,3.39,0,0,0-.52-1.08,3.48,3.48,0,0,0-.92-.86,3.89,3.89,0,0,0-1.15-.5,7.28,7.28,0,0,0-1.18-.2v-1.39h11.3V201a17.56,17.56,0,0,0-2.53.29c-.7.15-1,.39-1,.72a3.89,3.89,0,0,0,.05.52c0,.22.08.39.1.52q.45,1.72,1.59,5.68c.76,2.65,1.89,6.6,3.39,11.88L532.33,200h1.92l7,21.05q1.41-4.86,2.43-8.48c.67-2.42,1.24-4.49,1.68-6.22.31-1.21.51-2,.59-2.49a6.56,6.56,0,0,0,.11-1.14c0-.44-.3-.82-.9-1.12a8.78,8.78,0,0,0-2.94-.6v-1.39h10Z"/><path class="cls-1" d="M576,202.92a13.74,13.74,0,0,1,2.87,4.62,16.66,16.66,0,0,1,1,6,16.22,16.22,0,0,1-1.06,6,13.43,13.43,0,0,1-2.93,4.59,12.65,12.65,0,0,1-4.22,2.89,13.59,13.59,0,0,1-10.45-.07,12.41,12.41,0,0,1-4.21-3,13.56,13.56,0,0,1-2.77-4.6,16.46,16.46,0,0,1-1-5.79,16.29,16.29,0,0,1,1-6,14,14,0,0,1,2.91-4.58,12.77,12.77,0,0,1,4.27-2.93,13.46,13.46,0,0,1,10.28,0A12.36,12.36,0,0,1,576,202.92Zm-2.91,19.65a12.81,12.81,0,0,0,1.59-4,23.38,23.38,0,0,0,.5-5,22.58,22.58,0,0,0-.56-5.24,12.92,12.92,0,0,0-1.63-4.06,7.83,7.83,0,0,0-2.69-2.59,7.42,7.42,0,0,0-3.71-.92,7.18,7.18,0,0,0-4,1.07,8.38,8.38,0,0,0-2.67,2.87,13.88,13.88,0,0,0-1.46,4,23.65,23.65,0,0,0-.48,4.84,23.23,23.23,0,0,0,.51,5.08,12.87,12.87,0,0,0,1.6,4,8,8,0,0,0,2.66,2.69,8,8,0,0,0,7.6,0A7.63,7.63,0,0,0,573.05,222.57Z"/><path class="cls-1" d="M605.59,219.12l-.59,8.24H583.34V226c.32,0,.77-.07,1.36-.14a4.65,4.65,0,0,0,1.24-.25,1.69,1.69,0,0,0,.85-.74,2.58,2.58,0,0,0,.26-1.25V203.74a2.87,2.87,0,0,0-.22-1.17,1.72,1.72,0,0,0-.89-.82,7.19,7.19,0,0,0-1.26-.46,7.36,7.36,0,0,0-1.34-.26v-1.39H595V201a9.55,9.55,0,0,0-1.41.19,11,11,0,0,0-1.26.32,1.41,1.41,0,0,0-.91.8,3.08,3.08,0,0,0-.25,1.21v18.61a12.49,12.49,0,0,0,.13,2,1.78,1.78,0,0,0,.6,1.11,2.7,2.7,0,0,0,1.34.46,22.74,22.74,0,0,0,2.49.1c.48,0,1,0,1.5,0a11.22,11.22,0,0,0,1.48-.15,8.27,8.27,0,0,0,1.26-.32,2,2,0,0,0,.85-.52,17.08,17.08,0,0,0,1.87-2.73,18.86,18.86,0,0,0,1.47-2.95Z"/><path class="cls-1" d="M629,206.58h-1.47a9.86,9.86,0,0,0-1.71-3.3,4.2,4.2,0,0,0-2.49-1.94c-.4-.05-.88-.09-1.43-.12s-1.18,0-1.89,0h-4.64v11.13h3.19a6.71,6.71,0,0,0,2.25-.3,3.71,3.71,0,0,0,1.37-.93,3.92,3.92,0,0,0,.71-1.34,7.61,7.61,0,0,0,.42-1.94h1.47v10.9H623.3a8,8,0,0,0-.4-2,5.1,5.1,0,0,0-.73-1.58,3,3,0,0,0-1.48-1,7.83,7.83,0,0,0-2.14-.26h-3.19v9.54a2.55,2.55,0,0,0,.25,1.15,1.85,1.85,0,0,0,.9.81,6,6,0,0,0,1.27.34,9.65,9.65,0,0,0,1.48.21v1.39h-12V226c.39,0,.91-.07,1.56-.13a4.4,4.4,0,0,0,1.27-.22,1.66,1.66,0,0,0,.85-.75,2.5,2.5,0,0,0,.27-1.2v-20a3,3,0,0,0-.22-1.15,1.65,1.65,0,0,0-.9-.81,6.52,6.52,0,0,0-1.41-.45,11.53,11.53,0,0,0-1.42-.23v-1.39H629Z"/><path class="cls-1" d="M654.75,219.19l-.53,8.17h-23V226c.4,0,.92-.08,1.57-.17a5.26,5.26,0,0,0,1.27-.26,1.83,1.83,0,0,0,.87-.76,2.6,2.6,0,0,0,.24-1.19V203.67a3,3,0,0,0-.21-1.15,1.73,1.73,0,0,0-.9-.81,6.63,6.63,0,0,0-1.42-.45,11,11,0,0,0-1.42-.23v-1.39h21.45v6.68H651.2a9.22,9.22,0,0,0-1.69-3.15,4.19,4.19,0,0,0-2.47-1.83c-.41-.05-.89-.09-1.45-.12s-1.2,0-1.91,0h-4.36v11h3.13a6.18,6.18,0,0,0,2.19-.28,3.06,3.06,0,0,0,1.22-.95,5.18,5.18,0,0,0,.74-1.51,10.05,10.05,0,0,0,.4-1.79h1.46v10.86H647a9.49,9.49,0,0,0-.42-2,5.14,5.14,0,0,0-.72-1.52,2.79,2.79,0,0,0-1.37-1,7.12,7.12,0,0,0-2-.24h-3.13v8.31a8.51,8.51,0,0,0,.18,2,1.79,1.79,0,0,0,.68,1.09,2.89,2.89,0,0,0,1.39.48,22.23,22.23,0,0,0,2.5.11h1.7a17.34,17.34,0,0,0,1.77-.08,9.89,9.89,0,0,0,1.54-.29,2.34,2.34,0,0,0,1.12-.55,12.28,12.28,0,0,0,1.88-2.84,18.58,18.58,0,0,0,1.26-2.81Z"/><path class="cls-1" d="M396.12,275.36H384.6V274a11.43,11.43,0,0,0,2.53-.39c.67-.2,1-.44,1-.72a2.45,2.45,0,0,0,0-.43A1.85,1.85,0,0,0,388,272l-2.3-6.21H376c-.36.91-.66,1.7-.89,2.38s-.43,1.3-.61,1.88-.29,1-.36,1.36a5.34,5.34,0,0,0-.09.86c0,.52.41.93,1.23,1.21A9.68,9.68,0,0,0,378,274v1.39H367.56V274a7.89,7.89,0,0,0,1.27-.22,4.17,4.17,0,0,0,1.25-.5,4.7,4.7,0,0,0,1.21-1.11,6.78,6.78,0,0,0,.84-1.59q2.1-5.21,4.61-11.72t4.49-11.58h1.57L392,271.16a4.41,4.41,0,0,0,.66,1.23,4.74,4.74,0,0,0,1,.92,4.61,4.61,0,0,0,1.18.46,5.92,5.92,0,0,0,1.21.2ZM385,264l-4.2-10.76L376.63,264Z"/><path class="cls-1" d="M414.36,262.64a6.45,6.45,0,0,1,1.3,2.14,8,8,0,0,1,.42,2.71,7.71,7.71,0,0,1-2.72,6.05,9.83,9.83,0,0,1-6.74,2.38,12.62,12.62,0,0,1-3.71-.57,14.6,14.6,0,0,1-3.2-1.4l-.84,1.43h-1.56l-.27-9.5h1.58a19.62,19.62,0,0,0,1.14,3.18,11.39,11.39,0,0,0,1.73,2.65,7.94,7.94,0,0,0,2.37,1.83,6.9,6.9,0,0,0,3.16.68,7,7,0,0,0,2.35-.35,4.08,4.08,0,0,0,1.63-1,4,4,0,0,0,.93-1.52,6.16,6.16,0,0,0,.3-2,5.56,5.56,0,0,0-.94-3.1,5.8,5.8,0,0,0-2.79-2.18c-.85-.33-1.82-.71-2.91-1.11s-2-.8-2.83-1.16a9.21,9.21,0,0,1-3.64-2.76,7.17,7.17,0,0,1-1.3-4.47,6.79,6.79,0,0,1,.64-2.94,7.46,7.46,0,0,1,1.84-2.44,8.29,8.29,0,0,1,2.67-1.6,9.27,9.27,0,0,1,3.23-.57,9.44,9.44,0,0,1,3.42.58,16.62,16.62,0,0,1,2.77,1.37l.8-1.33h1.56l.16,9.2h-1.59q-.42-1.57-1-3a10.87,10.87,0,0,0-1.4-2.61,6.34,6.34,0,0,0-2-1.81,6,6,0,0,0-3-.67,4.49,4.49,0,0,0-3.16,1.19,3.78,3.78,0,0,0-1.31,2.91,5,5,0,0,0,.84,3,6.21,6.21,0,0,0,2.44,1.94,28.47,28.47,0,0,0,2.8,1.18c.92.33,1.81.69,2.67,1.07a19.83,19.83,0,0,1,2.25,1.15A8.33,8.33,0,0,1,414.36,262.64Z"/><path class="cls-1" d="M436.8,262.64a6.45,6.45,0,0,1,1.3,2.14,8,8,0,0,1,.42,2.71,7.71,7.71,0,0,1-2.72,6.05,9.8,9.8,0,0,1-6.73,2.38,12.52,12.52,0,0,1-3.71-.57,14.48,14.48,0,0,1-3.21-1.4l-.84,1.43h-1.56l-.27-9.5h1.58a19.62,19.62,0,0,0,1.14,3.18,11.39,11.39,0,0,0,1.73,2.65,7.94,7.94,0,0,0,2.37,1.83,7.84,7.84,0,0,0,5.51.33,4.08,4.08,0,0,0,1.63-1,4,4,0,0,0,.93-1.52,6.16,6.16,0,0,0,.3-2,5.56,5.56,0,0,0-.94-3.1,5.8,5.8,0,0,0-2.79-2.18c-.85-.33-1.82-.71-2.91-1.11s-2-.8-2.83-1.16a9.21,9.21,0,0,1-3.64-2.76,7.17,7.17,0,0,1-1.3-4.47,6.79,6.79,0,0,1,.64-2.94,7.46,7.46,0,0,1,1.84-2.44,8.4,8.4,0,0,1,2.67-1.6,9.27,9.27,0,0,1,3.23-.57,9.4,9.4,0,0,1,3.42.58,16.24,16.24,0,0,1,2.77,1.37l.8-1.33h1.56l.16,9.2h-1.58c-.29-1-.61-2.06-1-3a10.53,10.53,0,0,0-1.4-2.61,6.34,6.34,0,0,0-2-1.81,6,6,0,0,0-3-.67,4.5,4.5,0,0,0-3.16,1.19,3.78,3.78,0,0,0-1.31,2.91,5,5,0,0,0,.84,3,6.21,6.21,0,0,0,2.44,1.94,29.52,29.52,0,0,0,2.8,1.18c.92.33,1.81.69,2.67,1.07a20.85,20.85,0,0,1,2.26,1.15A8.5,8.5,0,0,1,436.8,262.64Z"/><path class="cls-1" d="M464.38,250.92a13.74,13.74,0,0,1,2.87,4.62,16.66,16.66,0,0,1,1,6,16.43,16.43,0,0,1-1.06,6,13.43,13.43,0,0,1-2.93,4.59,12.76,12.76,0,0,1-4.22,2.89,13.61,13.61,0,0,1-10.46-.07,12.61,12.61,0,0,1-4.21-3,13.7,13.7,0,0,1-2.76-4.6,16.47,16.47,0,0,1-1-5.79,16.29,16.29,0,0,1,1.06-6,14,14,0,0,1,2.91-4.58,12.67,12.67,0,0,1,4.27-2.93,13.46,13.46,0,0,1,10.28,0A12.46,12.46,0,0,1,464.38,250.92Zm-2.91,19.65a12.81,12.81,0,0,0,1.59-4,23.38,23.38,0,0,0,.5-5,23.14,23.14,0,0,0-.56-5.24,12.92,12.92,0,0,0-1.63-4.06,7.83,7.83,0,0,0-2.69-2.59,7.46,7.46,0,0,0-3.72-.92,7.15,7.15,0,0,0-4,1.07,8.5,8.5,0,0,0-2.68,2.87,13.87,13.87,0,0,0-1.45,4,23.65,23.65,0,0,0-.48,4.84,23.23,23.23,0,0,0,.51,5.08,12.87,12.87,0,0,0,1.6,4,7.87,7.87,0,0,0,2.66,2.69,7.27,7.27,0,0,0,3.82,1,7.35,7.35,0,0,0,3.77-1A7.65,7.65,0,0,0,461.47,270.57Z"/><path class="cls-1" d="M484,276a11.75,11.75,0,0,1-4.75-1,12,12,0,0,1-4-2.81,13.48,13.48,0,0,1-2.77-4.48,16.34,16.34,0,0,1-1-6,17,17,0,0,1,1-6,14.09,14.09,0,0,1,2.81-4.66,12.37,12.37,0,0,1,4.19-3,13.56,13.56,0,0,1,8.88-.55,14,14,0,0,1,3.16,1.43l.8-1.33h1.56l.18,9.89h-1.6a23,23,0,0,0-.94-3.14,12.12,12.12,0,0,0-1.46-2.86,7.09,7.09,0,0,0-2.23-2.08,5.72,5.72,0,0,0-2.94-.75,7.55,7.55,0,0,0-3.52.84,8,8,0,0,0-2.82,2.48,12.21,12.21,0,0,0-1.78,4,21.34,21.34,0,0,0-.64,5.45,16.74,16.74,0,0,0,.67,4.88,12.68,12.68,0,0,0,1.92,3.9,9.49,9.49,0,0,0,3,2.6,7.84,7.84,0,0,0,3.81.93,8.23,8.23,0,0,0,2.91-.49,8,8,0,0,0,2.3-1.32,10.42,10.42,0,0,0,1.72-2,10.65,10.65,0,0,0,1.21-2.38l1.46.71A10.95,10.95,0,0,1,484,276Z"/><path class="cls-1" d="M509.55,275.36H497.07V274l1.53-.12a5.75,5.75,0,0,0,1.4-.23,1.93,1.93,0,0,0,.94-.69,2.16,2.16,0,0,0,.29-1.22V251.63a2.78,2.78,0,0,0-.21-1.15,1.76,1.76,0,0,0-1-.77,11.64,11.64,0,0,0-1.47-.44,11.16,11.16,0,0,0-1.46-.24v-1.39h12.48V249a11,11,0,0,0-1.44.15,9.57,9.57,0,0,0-1.47.32,1.53,1.53,0,0,0-1,.76,2.64,2.64,0,0,0-.26,1.17v20.06a2.25,2.25,0,0,0,.29,1.14,1.93,1.93,0,0,0,1,.79,9.3,9.3,0,0,0,1.34.35,9.74,9.74,0,0,0,1.57.2Z"/><path class="cls-1" d="M538.87,275.36H527.35V274a11.33,11.33,0,0,0,2.53-.39c.67-.2,1-.44,1-.72a4,4,0,0,0,0-.43,2.44,2.44,0,0,0-.12-.45l-2.3-6.21h-9.72c-.37.91-.67,1.7-.89,2.38s-.44,1.3-.62,1.88a12,12,0,0,0-.35,1.36,4.53,4.53,0,0,0-.1.86c0,.52.41.93,1.23,1.21a9.75,9.75,0,0,0,2.77.51v1.39H510.32V274a7.89,7.89,0,0,0,1.27-.22,4.4,4.4,0,0,0,1.25-.5,4.87,4.87,0,0,0,1.21-1.11,7.62,7.62,0,0,0,.84-1.59q2.08-5.21,4.61-11.72T524,247.25h1.56l9.24,23.91a4.68,4.68,0,0,0,.66,1.23,4.82,4.82,0,0,0,1,.92,4.67,4.67,0,0,0,1.17.46,6,6,0,0,0,1.21.2ZM527.72,264l-4.2-10.76L519.38,264Z"/><path class="cls-1" d="M562.41,255.16h-1.35a9.36,9.36,0,0,0-.64-1.67,14,14,0,0,0-1-1.82,8.83,8.83,0,0,0-1.28-1.58,2.56,2.56,0,0,0-1.34-.77c-.4,0-.91-.09-1.52-.11s-1.19,0-1.71,0h-1.13v22.16a2.63,2.63,0,0,0,.27,1.19,1.86,1.86,0,0,0,1,.83,12.12,12.12,0,0,0,1.47.37,11.1,11.1,0,0,0,1.75.25v1.39H543.77V274c.37,0,.92-.08,1.67-.16a6.05,6.05,0,0,0,1.56-.29,1.86,1.86,0,0,0,.94-.73,2.31,2.31,0,0,0,.31-1.28V249.17h-1.14l-1.5,0c-.6,0-1.17.06-1.72.12a2.43,2.43,0,0,0-1.34.77,10.63,10.63,0,0,0-1.28,1.58,12.85,12.85,0,0,0-1,1.86,11.82,11.82,0,0,0-.63,1.63h-1.36v-7.52h24.16Z"/><path class="cls-1" d="M587.91,267.19l-.52,8.17h-23V274c.39,0,.91-.08,1.56-.17a5.14,5.14,0,0,0,1.27-.26,1.74,1.74,0,0,0,.87-.76,2.6,2.6,0,0,0,.24-1.19V251.67a3,3,0,0,0-.21-1.15,1.65,1.65,0,0,0-.9-.81,6.45,6.45,0,0,0-1.42-.45,11.14,11.14,0,0,0-1.41-.23v-1.39h21.44v6.68h-1.46a8.89,8.89,0,0,0-1.69-3.15,4.19,4.19,0,0,0-2.47-1.83c-.4-.05-.89-.09-1.45-.12s-1.19,0-1.91,0h-4.36v11h3.13a6.29,6.29,0,0,0,2.2-.28A3.06,3.06,0,0,0,579,259a5.18,5.18,0,0,0,.73-1.51,10.05,10.05,0,0,0,.4-1.79h1.46v10.86h-1.46a8.37,8.37,0,0,0-.42-2A5.43,5.43,0,0,0,579,263a2.82,2.82,0,0,0-1.38-1,7,7,0,0,0-2-.24h-3.13v8.31a8.51,8.51,0,0,0,.18,2,1.84,1.84,0,0,0,.68,1.09,2.89,2.89,0,0,0,1.39.48,22.35,22.35,0,0,0,2.5.11h1.7a17.55,17.55,0,0,0,1.78-.08,10,10,0,0,0,1.53-.29,2.29,2.29,0,0,0,1.12-.55,12.6,12.6,0,0,0,1.89-2.84,18.58,18.58,0,0,0,1.26-2.81Z"/><path class="cls-1" d="M608,262.64a6.45,6.45,0,0,1,1.3,2.14,8,8,0,0,1,.42,2.71,7.7,7.7,0,0,1-2.71,6.05,9.85,9.85,0,0,1-6.74,2.38,12.52,12.52,0,0,1-3.71-.57,14.48,14.48,0,0,1-3.21-1.4l-.84,1.43h-1.56l-.27-9.5h1.58a21.72,21.72,0,0,0,1.14,3.18,11.72,11.72,0,0,0,1.73,2.65,7.94,7.94,0,0,0,2.37,1.83,7.84,7.84,0,0,0,5.51.33,3.91,3.91,0,0,0,2.56-2.51,6.16,6.16,0,0,0,.3-2,5.62,5.62,0,0,0-.93-3.1,5.88,5.88,0,0,0-2.8-2.18c-.84-.33-1.81-.71-2.91-1.11s-2-.8-2.83-1.16a9.21,9.21,0,0,1-3.64-2.76,7.17,7.17,0,0,1-1.3-4.47,6.79,6.79,0,0,1,.64-2.94,7.6,7.6,0,0,1,1.84-2.44,8.34,8.34,0,0,1,2.68-1.6,9.17,9.17,0,0,1,3.22-.57,9.49,9.49,0,0,1,3.43.58A16.51,16.51,0,0,1,606,249l.8-1.33h1.56l.16,9.2H607c-.29-1-.61-2.06-1-3a10.53,10.53,0,0,0-1.4-2.61,6.34,6.34,0,0,0-2.05-1.81,6,6,0,0,0-3-.67,4.5,4.5,0,0,0-3.16,1.19,3.78,3.78,0,0,0-1.31,2.91,5,5,0,0,0,.84,3,6.28,6.28,0,0,0,2.44,1.94,28.61,28.61,0,0,0,2.81,1.18c.91.33,1.8.69,2.66,1.07a20.85,20.85,0,0,1,2.26,1.15A8.5,8.5,0,0,1,608,262.64Z"/><path d="M205.87,229.91a16.79,16.79,0,0,1-3-.46,16.22,16.22,0,0,1-2.49-.71,3.89,3.89,0,0,1-1.91-1.76,5.74,5.74,0,0,1-.52-2.47V203.82H199q6.45,6.92,12.33,14.26c1.75,2.19,3.42,4.39,5,6.59l6.25-6.6c-1.67-2.1-3.3-4.13-4.87-6.08q-4.17-5.19-10.54-12.39,4.59-4.32,9.28-9.55t9-10.14a7.92,7.92,0,0,1,2.58-1.82,14.7,14.7,0,0,1,3-1.07c.62-.11,1.12-.21,1.51-.3a7.83,7.83,0,0,1,1.17-.16l1-.09.55,0v-3H213v3l1.51.11a14.31,14.31,0,0,1,2.09.31,8.25,8.25,0,0,1,1.78.65,1.16,1.16,0,0,1,.77,1,7.64,7.64,0,0,1-1.52,4,68.29,68.29,0,0,1-4.84,6.09q-3,3.43-6.62,6.89t-7.41,6.64h-.84V181.67a6.49,6.49,0,0,1,.5-2.56,3.07,3.07,0,0,1,1.93-1.67,18.33,18.33,0,0,1,2.6-.63,19.45,19.45,0,0,1,2.93-.38v-3H181.2v3a17,17,0,0,1,5.4,1.47,3.7,3.7,0,0,1,1.91,1.71,5.92,5.92,0,0,1,.48,2.47V225a5.43,5.43,0,0,1-.57,2.58,3.53,3.53,0,0,1-1.82,1.61,9.18,9.18,0,0,1-2.59.5l-2.81.25v3h24.67Z"/><line class="cls-2" x1="173.25" y1="298.54" x2="289.5" y2="175.71"/><path d="M283.19,241.36v3a18.61,18.61,0,0,1,6.31,1.3c1.29.64,1.94,1.44,1.94,2.39a14.37,14.37,0,0,1-.25,2.45c-.17,1-.59,2.75-1.26,5.35q-1.43,5.54-3.61,13.32t-5.21,18.18l-15-45.12H262l-14.83,44.18q-4.82-17-7.26-25.46c-1.08-3.77-1.94-6.82-2.59-9.17l-7,7.43c.92,3.3,2,7.27,3.36,11.94q4.44,15.76,8.58,30.42H246l15.6-45.77,15,45.77h3.86q4.56-14.61,8.5-27.53t6.91-22.6a11,11,0,0,1,1.57-3.33,8.83,8.83,0,0,1,2.36-2.11,11.63,11.63,0,0,1,2.56-1.15,9.24,9.24,0,0,1,2.43-.49v-3Z"/></svg>